<svg id="_2" data-name="2" xmlns="http://www.w3.org/2000/svg" xmlns:xlink="http://www.w3.org/1999/xlink" viewBox="0 0 365.39 512"><defs><style>.cls-1{fill:url(#linear-gradient);}.cls-2{font-size:72px;fill:#fff;font-family:SignikaNegative-SemiBold, Signika Negative;font-weight:600;}.cls-3{letter-spacing:-0.02em;}.cls-4{letter-spacing:0.02em;}</style><linearGradient id="linear-gradient" x1="73.3" y1="256" x2="438.7" y2="256" gradientUnits="userSpaceOnUse"><stop offset="0" stop-color="#c6ffdd"/><stop offset="0.54" stop-color="#fbd786"/><stop offset="1" stop-color="#f7797d"/></linearGradient></defs><title>logo3</title><path class="cls-1" d="M424.34,111.58a182.72,182.72,0,0,0-351,71.12A200.9,200.9,0,0,0,84.24,249,219.51,219.51,0,0,0,102.6,288.4c10.42,17.76,22.06,32.77,32.3,45.9,5.11,6.57,9.88,12.65,14,18.3a131,131,0,0,1,10,15.61l3.85,7.33h12.16L192.33,424l12.57,88H307.1l1.68-11.75L319.67,424l17.48-48.44h12.16l3.84-7.33a123,123,0,0,1,8.64-13.73c6.13-8.66,14-18.33,22.32-29.22,12.51-16.35,26.16-35.5,36.72-58.89A201.43,201.43,0,0,0,433.73,228a204.55,204.55,0,0,0,5-45.32A182.38,182.38,0,0,0,424.34,111.58ZM195,375.54h27.17l6.45,44.65H211.1Zm88.36,109.08H228.64l-5.29-37.06h65.3Zm-42-109.08h29.35l-6.44,44.65H247.78Zm59.57,44.65H283.38l6.45-44.65H317Z" transform="translate(-73.3)"/><text class="cls-2" transform="translate(73.96 223.59)"><tspan class="cls-3">k</tspan><tspan x="35.57" y="0">ul</tspan><tspan class="cls-3" x="96.69" y="0">k</tspan><tspan x="132.26" y="0">u</tspan><tspan class="cls-4" x="171.72" y="0">r</tspan><tspan x="200.3" y="0">i</tspan></text></svg>