<?xml version="1.0" encoding="utf-8"?>
<!-- Generator: Adobe Illustrator 23.0.2, SVG Export Plug-In . SVG Version: 6.00 Build 0)  -->
<svg version="1.1" id="Layer_1" xmlns="http://www.w3.org/2000/svg" xmlns:xlink="http://www.w3.org/1999/xlink" x="0px" y="0px"
	 viewBox="0 0 370 520" style="enable-background:new 0 0 370 520;" xml:space="preserve">
<style type="text/css">
	.st0{fill:#E2C8A6;}
	.st1{fill:#FDFADE;}
	.st2{fill:url(#SVGID_1_);stroke:url(#SVGID_2_);stroke-miterlimit:10;}
	.st3{fill:#FFFFFF;}
	.st4{fill:url(#SVGID_3_);stroke:url(#SVGID_4_);stroke-miterlimit:10;}
	.st5{fill:#77C7C6;}
	.st6{fill:#F7F5C1;}
	.st7{opacity:0.1;fill:url(#SVGID_5_);enable-background:new    ;}
</style>
<title>balloon10</title>
<path class="st0" d="M135.6,453.8h99.8v21.6c-0.1,11.6-5.2,22.6-14.1,30.1l0,0c-7.9,6.7-17.9,10.4-28.3,10.4h-15
	c-23.4,0-42.4-18.1-42.4-40.5L135.6,453.8z"/>
<polygon class="st1" points="145.8,435 144.5,431.2 126.3,375.8 124.4,369.9 110.5,374 111.1,375.8 129.2,431.2 131.8,439.2 "/>
<polygon class="st1" points="239.1,439.2 260.5,374 246.6,369.9 225.2,435 "/>
<rect x="178.2" y="368" class="st1" width="14.6" height="81.2"/>
<linearGradient id="SVGID_1_" gradientUnits="userSpaceOnUse" x1="4" y1="336" x2="367" y2="336" gradientTransform="matrix(1 0 0 -1 0 522)">
	<stop  offset="0" style="stop-color:#8ED6FF"/>
	<stop  offset="1" style="stop-color:#A6E3E9"/>
</linearGradient>
<linearGradient id="SVGID_2_" gradientUnits="userSpaceOnUse" x1="3.5" y1="186" x2="367.5" y2="186">
	<stop  offset="0" style="stop-color:#8ED6FF"/>
	<stop  offset="1" style="stop-color:#A6E3E9"/>
</linearGradient>
<path class="st2" d="M367,177.9c0-29-7.5-57.4-21.8-82.6c-8.4-14.9-19.1-28.5-31.5-40.3c-10.6-10.1-22.3-18.9-35-26.1
	c-6-3.5-12.2-6.7-18.6-9.4c-20.8-9-43.1-14.1-65.7-15.2C191.5,4.1,188.7,4,186,4h-1.5c-23.9,0.2-47.6,4.9-69.8,13.9
	C93.4,26.5,73.9,39.1,57.3,55C24.4,86.4,4,129.9,4,177.9c0,30,8.2,55.4,20.1,77.4c27.7,51.9,75.2,84.9,81.8,112.6h159.2
	C274.4,328.5,367,278.2,367,177.9z"/>
<path class="st3" d="M185,11.2c0-3.5-2.9-6.3-6.4-6.3c-0.3,0-0.7,0-1,0.1c-0.5,0.1-1.1,0.2-1.6,0.3C51.9,12.4,43.6,118.8,58.2,195.5
	C73.6,276.6,127.8,341,132,369.1c0.5,3.1,3.2,5.4,6.3,5.3h40.2c3.5,0.1,6.4-2.7,6.4-6.2c0,0,0,0,0,0L185,11.2z"/>
<path class="st3" d="M186,11.2c0-3.5,2.9-6.3,6.4-6.3c0.3,0,0.6,0,0.9,0.1c0.5,0.1,1.1,0.2,1.6,0.3
	c124.1,7.1,132.4,113.5,117.8,190.2c-15.4,81-69.6,145.4-73.8,173.6c-0.5,3.1-3.2,5.4-6.3,5.3h-40.2c-3.5,0.1-6.4-2.7-6.4-6.2
	c0,0,0,0,0,0L186,11.2z"/>
<linearGradient id="SVGID_3_" gradientUnits="userSpaceOnUse" x1="186.5732" y1="517.9954" x2="183.6532" y2="153.8419" gradientTransform="matrix(1 0 0 -1 0 522)">
	<stop  offset="0" style="stop-color:#8ED6FF"/>
	<stop  offset="1" style="stop-color:#A6E3E9"/>
</linearGradient>
<linearGradient id="SVGID_4_" gradientUnits="userSpaceOnUse" x1="126.6847" y1="186" x2="244.2628" y2="186">
	<stop  offset="0" style="stop-color:#8ED6FF"/>
	<stop  offset="1" style="stop-color:#A6E3E9"/>
</linearGradient>
<path class="st4" d="M194,5.3c40,11.8,55.7,102.4,47.8,172.2c-8.5,74.7-32.2,151-34.8,190.5h-43.1c-2.6-39.5-26.3-115.8-34.8-190.5
	c-7.9-69.8,7.7-160.4,47.8-172.2c2.6-0.8,5.3-1.2,8-1.3l0,0h1C188.7,4.1,191.4,4.5,194,5.3z"/>
<polygon class="st5" points="265,368 105.9,368 106.9,375.8 264,375.8 "/>
<path class="st0" d="M259,431.2H111.9v16.9c0,3.6,0.4,7.1,1.4,10.6c0.1,0.5,0.2,1.1,0.4,1.6c3.7,12.4,12.4,22.6,24.1,28.1
	c2.2,1.1,4.4,2,6.7,2.7c4.8,1.5,9.7,2.2,14.7,2.2h52.4c7,0,13.9-1.5,20.3-4.4c0.4-0.1,0.8-0.3,1.1-0.5c12.1-5.8,21.1-16.6,24.5-29.6
	c0.1-0.1,0.1-0.1,0-0.1c1-3.5,1.4-7,1.4-10.6L259,431.2z"/>
<path class="st6" d="M218.5,446.3c0-7-5.2-19.6-8.2-19.6c-2.4,0-8.2,12.6-8.2,19.6s3.7,12.7,8.2,12.7S218.5,453.3,218.5,446.3z"/>
<path class="st6" d="M168.8,446.3c0-7-5.2-19.6-8.2-19.6c-2.4,0-8.2,12.6-8.2,19.6s3.7,12.7,8.2,12.7S168.8,453.3,168.8,446.3z"/>
<path class="st6" d="M267.2,446.3c0-7-5.2-19.6-8.2-19.6c-2.4,0-8.2,12.6-8.2,19.6s3.7,12.7,8.2,12.7
	C263.6,459,267.2,453.3,267.2,446.3z"/>
<path class="st6" d="M120.1,446.3c0-4.3-1.9-10.7-4.2-15c-1.4-2.7-2.8-4.6-4-4.6c-2.4,0-8.2,12.6-8.2,19.6c0,1.6,0.2,3.1,0.6,4.6
	c1.2,4.7,4.2,8,7.6,8c0.1,0,0.2,0,0.3-0.1c0.3,0,0.7,0,1-0.1C117.1,457.8,120.1,452.5,120.1,446.3z"/>
<linearGradient id="SVGID_5_" gradientUnits="userSpaceOnUse" x1="205.64" y1="262.0012" x2="338.88" y2="262.0012" gradientTransform="matrix(1 0 0 -1 0 522)">
	<stop  offset="0" style="stop-color:#8ED6FF"/>
	<stop  offset="1" style="stop-color:#DEFCFC"/>
</linearGradient>
<path class="st7" d="M259.2,426.8c3,1.4,7.6,12.9,7.6,19.5c0,6.7-3.3,12.3-7.7,12.6c-0.2,0.1-0.3,0.1-0.5,0.1c-0.1,0-0.3,0-0.4-0.1
	c-0.3,0-0.6-0.1-0.9-0.1c-3.3,12.6-11.8,23.2-23.4,29.1c-0.4,0.2-0.7,0.4-1.1,0.6c-0.1,0.1-0.1,0.4-0.2,0.5
	c-2.4,6.5-6.5,12.2-11.7,16.6c-7.9,6.7-17.9,10.4-28.3,10.4H185V4h1.4c0.1,0,0.3,0,0.4,0.1c2.6,0,5.3,0.1,7.9,0.2
	c22.6,1.2,44.7,6.4,65.4,15.5c7,3,13.8,6.5,20.4,10.4c11.8,7,22.8,15.3,32.7,24.8c11.8,11.2,21.9,24,30.1,38
	c15.2,25.7,23.3,55.1,23.2,85c0,100.3-92.5,150.6-101.9,190.1h-0.1l-0.9,7.8h-4.2l-18.1,55.4h13.5c1.5-2.6,2.8-4.6,3.7-4.6
	c0.2,0,0.3,0,0.5,0.1L259.2,426.8z M192.3,375.8L192.3,375.8v55.4h13.8c1.5-2.6,2.8-4.6,3.7-4.6c0.2,0,0.4,0.1,0.6,0.1
	c1,0.4,2.3,2.2,3.5,4.4H226l18.2-55.4L192.3,375.8z"/>
</svg>
