<?xml version="1.0" encoding="utf-8"?>
<!-- Generator: Adobe Illustrator 23.0.2, SVG Export Plug-In . SVG Version: 6.00 Build 0)  -->
<svg version="1.1" id="_x32_" xmlns="http://www.w3.org/2000/svg" xmlns:xlink="http://www.w3.org/1999/xlink" x="0px" y="0px"
	 viewBox="0 0 512 512" style="enable-background:new 0 0 512 512;" xml:space="preserve">
<style type="text/css">
	.st0{fill:url(#SVGID_1_);stroke:url(#SVGID_2_);stroke-miterlimit:10;}
	.st1{fill:url(#SVGID_3_);}
</style>
<linearGradient id="SVGID_1_" gradientUnits="userSpaceOnUse" x1="264.62" y1="455.334" x2="282.566" y2="455.334">
	<stop  offset="0" style="stop-color:#C6FFDD"/>
	<stop  offset="0.5095" style="stop-color:#FBD786"/>
	<stop  offset="1" style="stop-color:#F7797D"/>
</linearGradient>
<linearGradient id="SVGID_2_" gradientUnits="userSpaceOnUse" x1="264.12" y1="455.334" x2="283.066" y2="455.334">
	<stop  offset="0" style="stop-color:#C6FFDD"/>
	<stop  offset="0.5095" style="stop-color:#FBD786"/>
	<stop  offset="1" style="stop-color:#F7797D"/>
</linearGradient>
<rect x="264.6" y="398.7" class="st0" width="17.9" height="113.3"/>
<linearGradient id="SVGID_3_" gradientUnits="userSpaceOnUse" x1="123.6996" y1="192.144" x2="423.4874" y2="192.144">
	<stop  offset="0" style="stop-color:#C6FFDD"/>
	<stop  offset="0.5095" style="stop-color:#FBD786"/>
	<stop  offset="1" style="stop-color:#F7797D"/>
</linearGradient>
<path class="st1" d="M273.6,0c-85.8,0-153.4,65.8-149.8,169.1c3.8,107.5,80,174.2,130.4,188.9L240,384.3h67.1L293,358.1
	c50.4-14.7,126.6-81.4,130.4-188.9C427,65.8,359.4,0,273.6,0z M238.9,84.2c-6.1,3.6-11.7,7.9-16.6,13
	c-10.8,11.2-18.4,25.5-22.6,42.9c-1.8,7.4-9.2,12-16.6,10.2c-7.4-1.8-12-9.2-10.2-16.6c5.1-21.5,15-40.6,29.6-55.6
	c6.7-6.9,14.3-12.9,22.6-17.7c6.6-3.8,15-1.6,18.9,5C247.7,71.9,245.5,80.3,238.9,84.2z"/>
</svg>
