<svg id="Layer_1" data-name="Layer 1" xmlns="http://www.w3.org/2000/svg" xmlns:xlink="http://www.w3.org/1999/xlink" viewBox="0 0 370 520"><defs><style>.cls-1{fill:#e2c8a6;}.cls-2{fill:#fdfade;}.cls-3{fill:url(#linear-gradient);}.cls-4{fill:#fff;}.cls-5{fill:url(#linear-gradient-2);}.cls-6{fill:#77c7c6;}.cls-7{fill:#f7f5c1;}.cls-8{opacity:0.1;isolation:isolate;fill:url(#linear-gradient-3);}</style><linearGradient id="linear-gradient" x1="4" y1="186" x2="366.96" y2="186" gradientUnits="userSpaceOnUse"><stop offset="0" stop-color="#8ed6ff"/><stop offset="1" stop-color="#a6e3e9"/></linearGradient><linearGradient id="linear-gradient-2" x1="186.58" y1="4.02" x2="183.66" y2="368.17" xlink:href="#linear-gradient"/><linearGradient id="linear-gradient-3" x1="205.64" y1="260" x2="338.88" y2="260" gradientUnits="userSpaceOnUse"><stop offset="0" stop-color="#8ed6ff"/><stop offset="1" stop-color="#defcfc"/></linearGradient></defs><title>balloon10</title><path class="cls-1" d="M135.57,453.83h99.82v21.63a39.61,39.61,0,0,1-14.12,30.13h0A43.26,43.26,0,0,1,193,516H178c-23.42,0-42.4-18.14-42.4-40.52Z"/><polygon class="cls-2" points="145.76 435.03 144.51 431.22 126.35 375.83 124.41 369.87 110.48 374.03 111.1 375.83 129.19 431.22 131.83 439.19 145.76 435.03"/><polygon class="cls-2" points="239.12 439.21 260.47 374 246.58 369.85 225.23 435.05 239.12 439.21"/><rect class="cls-2" x="178.2" y="368.01" width="14.56" height="81.18"/><path class="cls-3" d="M367,177.92a166.93,166.93,0,0,0-21.83-82.63A172.06,172.06,0,0,0,313.65,55a180.22,180.22,0,0,0-35-26.13A171.84,171.84,0,0,0,260,19.46,187.46,187.46,0,0,0,194.28,4.28C191.51,4.07,188.74,4,186,4h-1.46A189.42,189.42,0,0,0,114.7,17.86,183,183,0,0,0,57.31,55C24.38,86.42,4,129.89,4,177.92c0,30,8.25,55.39,20.1,77.44C51.83,307.28,99.32,340.27,105.9,368H265.06C274.42,328.49,367,278.23,367,177.92Z"/><path class="cls-4" d="M185,11.19A6.35,6.35,0,0,0,177.59,5c-.53.08-1.07.23-1.61.26C51.88,12.36,43.62,118.79,58.21,195.52,73.63,276.57,127.8,341,132,369.12a6.33,6.33,0,0,0,6.32,5.32h40.23a6.32,6.32,0,0,0,6.41-6.23Z"/><path class="cls-4" d="M186,11.19A6.35,6.35,0,0,1,193.37,5,15,15,0,0,0,195,5.3c124.1,7.07,132.36,113.49,117.77,190.22-15.42,81-69.59,145.43-73.82,173.6a6.34,6.34,0,0,1-6.33,5.32H192.37a6.32,6.32,0,0,1-6.41-6.23Z"/><path class="cls-5" d="M194,5.29c40,11.78,55.7,102.4,47.77,172.18C233.29,252.2,209.59,328.51,207,368H163.94c-2.57-39.49-26.26-115.8-34.76-190.54C121.25,107.69,136.91,17.07,177,5.29A31.2,31.2,0,0,1,185,4V4h1A31.64,31.64,0,0,1,194,5.29Z"/><polygon class="cls-6" points="264.99 368 105.9 368 106.87 375.83 264.02 375.83 264.99 368"/><path class="cls-1" d="M259,431.22H111.93v16.92a38.35,38.35,0,0,0,1.39,10.6,6.37,6.37,0,0,0,.41,1.6,45.23,45.23,0,0,0,24.13,28.14,43.45,43.45,0,0,0,6.72,2.7,48.56,48.56,0,0,0,14.7,2.22h52.4A48.24,48.24,0,0,0,232,489a3.7,3.7,0,0,0,1.11-.48,45.55,45.55,0,0,0,24.54-29.6c.07-.07.07-.07,0-.14a38.35,38.35,0,0,0,1.39-10.6Z"/><path class="cls-7" d="M218.5,446.28c0-7-5.18-19.61-8.18-19.61-2.38,0-8.18,12.59-8.18,19.61s3.66,12.7,8.18,12.7S218.5,453.3,218.5,446.28Z"/><path class="cls-7" d="M168.83,446.28c0-7-5.19-19.61-8.19-19.61-2.38,0-8.18,12.59-8.18,19.61s3.66,12.7,8.18,12.7S168.83,453.3,168.83,446.28Z"/><path class="cls-7" d="M267.23,446.28c0-7-5.19-19.61-8.18-19.61-2.39,0-8.19,12.59-8.19,19.61s3.67,12.7,8.19,12.7S267.23,453.3,267.23,446.28Z"/><path class="cls-7" d="M120.11,446.26c0-4.29-1.94-10.74-4.16-15-1.38-2.7-2.84-4.57-4-4.57-2.43,0-8.18,12.61-8.18,19.61a19.68,19.68,0,0,0,.56,4.65c1.25,4.71,4.16,8,7.62,8a.63.63,0,0,0,.35-.07,1.8,1.8,0,0,0,1-.14C117.13,457.77,120.11,452.5,120.11,446.26Z"/><path class="cls-8" d="M259.17,426.79c3.05,1.38,7.56,12.89,7.56,19.47,0,6.73-3.33,12.27-7.7,12.62a1.15,1.15,0,0,1-.48.07.89.89,0,0,1-.42-.07,4,4,0,0,1-.9-.14,45.89,45.89,0,0,1-23.43,29.12,10.29,10.29,0,0,1-1.11.62c-.07.14-.14.35-.21.48a40.61,40.61,0,0,1-11.71,16.64A43.23,43.23,0,0,1,192.49,516H185V4h1.45a.89.89,0,0,1,.42.07c2.63,0,5.27.07,7.9.21a186.25,186.25,0,0,1,65.37,15.53A165.35,165.35,0,0,1,280.52,30.2,177.84,177.84,0,0,1,313.17,55a170.88,170.88,0,0,1,30.09,38,166.26,166.26,0,0,1,23.22,85c0,100.31-92.54,150.57-101.9,190.08h-.07l-.9,7.83h-4.23l-18.09,55.39H254.8c1.46-2.63,2.85-4.57,3.75-4.57a.73.73,0,0,1,.48.14Zm-66.89-51h0v55.39h13.79c1.46-2.63,2.84-4.57,3.74-4.57a2.16,2.16,0,0,1,.56.14c1,.41,2.29,2.21,3.47,4.43H226l18.16-55.39Z"/></svg>