<?xml version="1.0" encoding="utf-8"?>
<!-- Generator: Adobe Illustrator 22.1.0, SVG Export Plug-In . SVG Version: 6.00 Build 0)  -->
<svg version="1.1" id="Layer_1" xmlns="http://www.w3.org/2000/svg" xmlns:xlink="http://www.w3.org/1999/xlink" x="0px" y="0px"
	 viewBox="0 0 200 200" style="enable-background:new 0 0 200 200;" xml:space="preserve">
<style type="text/css">
	.st0{fill:#231815;}
</style>
<title>Artboard 1</title>
<g>
	<path class="st0" d="M122.5,66.2c0.2,0.2,0.3,0.5,0.3,0.8v17.5c0,3.8-1.1,6.7-3.2,8.7c-2.1,2-5,3-8.7,3c-3.7,0-6.6-1-8.7-3
		S99,88.3,99,84.5V67c0-0.7,0.5-1.2,1.2-1.2c0.3,0,0.6,0.1,0.9,0.4c0.2,0.2,0.3,0.5,0.3,0.8v17.5c0,3,0.8,5.3,2.5,6.9
		c1.9,1.7,4.4,2.6,7,2.4c2.6,0.1,5.1-0.7,7-2.4c1.7-1.6,2.5-3.9,2.5-6.9V67c0-0.3,0.1-0.6,0.3-0.8C121.3,65.7,122,65.7,122.5,66.2
		C122.5,66.2,122.5,66.2,122.5,66.2L122.5,66.2z"/>
	<path class="st0" d="M135.1,95.4c-0.2,0.2-0.5,0.4-0.8,0.3c-0.3,0-0.6-0.1-0.9-0.3c-0.2-0.2-0.3-0.5-0.3-0.8v-42
		c0-0.7,0.5-1.2,1.2-1.2c0.3,0,0.6,0.1,0.9,0.4c0.2,0.2,0.3,0.5,0.3,0.8v42C135.5,94.9,135.4,95.2,135.1,95.4z"/>
	<path class="st0" d="M122.5,113.8c0.2,0.2,0.3,0.5,0.3,0.8v17.5c0,3.8-1.1,6.7-3.2,8.7c-2.1,2-5,3-8.7,3c-3.7,0-6.6-1-8.7-3
		s-3.2-4.9-3.2-8.7v-17.5c0-0.7,0.5-1.2,1.2-1.2c0.3,0,0.6,0.1,0.9,0.4c0.2,0.2,0.3,0.5,0.3,0.8v17.5c0,3,0.8,5.3,2.5,6.9
		c1.9,1.7,4.4,2.6,7,2.4c2.6,0.1,5.1-0.7,7-2.4c1.7-1.6,2.5-3.9,2.5-6.9v-17.5c0-0.3,0.1-0.6,0.3-0.8
		C121.3,113.3,122,113.3,122.5,113.8C122.5,113.8,122.5,113.8,122.5,113.8z"/>
	<path class="st0" d="M149.1,113.9c0,0.3-0.1,0.6-0.3,0.9c-0.2,0.2-0.5,0.4-0.8,0.4c-0.3-0.1-0.6-0.1-0.9-0.3
		c-0.5-0.2-1-0.3-1.5-0.3c-1.8,0.1-3.6,0.8-4.9,2c-1.7,1.3-3,3-4,4.9c-1,1.8-1.5,3.7-1.6,5.7v15c0,0.7-0.5,1.2-1.2,1.2
		c-0.3,0-0.6-0.1-0.9-0.4c-0.2-0.2-0.3-0.5-0.3-0.8v-27.6c0-0.7,0.5-1.2,1.2-1.2c0.3,0,0.6,0.1,0.9,0.4c0.2,0.2,0.3,0.5,0.3,0.8v6.3
		c0.9-2.4,2.3-4.5,4.3-6.1c1.9-1.6,4.4-2.5,6.9-2.5C148.2,112.5,149.1,113,149.1,113.9z"/>
	<path class="st0" d="M154.6,107.9c-0.4-0.4-0.6-0.9-0.6-1.4V106c0-0.5,0.2-1,0.6-1.4c0.4-0.4,1-0.6,1.6-0.5c0.5,0,1,0.2,1.4,0.5
		c0.4,0.4,0.6,0.9,0.6,1.4v0.5c0,0.5-0.2,1-0.6,1.4c-0.4,0.4-0.9,0.6-1.5,0.5C155.5,108.4,155,108.2,154.6,107.9z M156.9,143
		c-0.2,0.2-0.5,0.4-0.8,0.4c-0.3,0-0.6-0.1-0.9-0.4c-0.2-0.2-0.3-0.5-0.3-0.8v-28.5c0-0.7,0.5-1.2,1.2-1.2c0.3,0,0.6,0.1,0.9,0.4
		c0.2,0.2,0.3,0.5,0.3,0.8v28.5C157.3,142.5,157.1,142.8,156.9,143z"/>
	<path class="st0" d="M85.8,128.3l-38-27.6l38.4-25.4c2.7-1.8,3.4-5.4,1.6-8.1c-1.8-2.7-5.4-3.4-8.1-1.6L44.5,88.9V56
		c0-3.3-2.7-6-6-6s-6,2.7-6,6v88c0,3.3,2.7,6,6,6s6-2.7,6-6v-31.3l34.5,25.1c2.6,1.9,6.3,1.3,8.2-1.3
		C89,133.8,88.4,130.2,85.8,128.3L85.8,128.3z"/>
</g>
</svg>
